<svg version="1" xmlns="http://www.w3.org/2000/svg" width="832" height="832" viewBox="0 0 624.000000 624.000000"><path d="M287.5 13c-90.9 8.1-172 55.2-222.7 129.5-27.5 40.3-43.5 82.3-50.5 132.5-2.3 17.3-2.3 56.7 0 74 7 50.2 23 92.2 50.5 132.5 65.7 96.2 182.4 145.7 297.2 126.1 91.3-15.6 168.8-71.1 213.9-153.1 48.8-88.8 47.6-202.1-3-290.3-47.7-83-128.4-137.1-223.4-149.7-14.4-1.9-48.1-2.7-62-1.5zm138.9 72.6c9.5 2.4 23.4 9.5 31.1 15.8 12.9 10.6 22.3 24.9 27.8 42.1 3.2 10.4 3.2 31.9-.1 42.4-6.9 22-20.5 39.2-39.2 49.9-3.1 1.7-9.8 4.6-15 6.3-8.9 3.1-10.4 3.3-23.5 3.4-16.1 0-22.3-1.3-35.2-7.5-10.7-5.1-21.3-13.1-27.2-20.6l-2.3-2.9-4.1 2.4c-2.3 1.2-8.9 4.9-14.7 8.1-5.8 3.1-15.9 8.8-22.5 12.5-6.6 3.7-15.8 8.9-20.5 11.5-4.7 2.6-14.3 8-21.5 12-7.1 4-14.8 8.3-17 9.5-14.6 7.8-22.6 12.9-22.1 14.2 5.3 13.7 5.4 35.2.2 49.3-.5 1.5 3.2 4 22.4 14.5 13.9 7.7 25.4 14.1 51 28.5 14 7.9 29.6 16.5 34.5 19.3 5 2.7 10.2 5.6 11.6 6.4 2.5 1.5 2.7 1.4 7.5-3.7 10.1-10.8 24.7-19.6 39-23.6 8-2.2 24.5-2.9 32.9-1.5 30.7 5.4 54.7 26.2 65.1 56.6 2.5 7.3 2.8 9.3 2.8 23.5.1 14.5-.1 16-2.8 24-3.8 11.4-6.4 16.3-13.5 25.7-7.4 9.9-18 18.4-29.6 23.9-13.1 6.2-18.9 7.4-35.3 7.4-12.9 0-14.8-.2-23.4-3-15.7-5.2-28-13.4-38.5-26-6.5-7.7-14.6-23.7-16.9-33.5-2.5-10-2.3-28.8.4-37.7 1.4-4.9 1.6-7 .8-7.7-.6-.5-5.8-3.5-11.6-6.7-17.9-9.8-25.1-13.8-37.5-20.9-6.6-3.7-14.9-8.3-18.5-10.3-3.6-1.9-11-6-16.5-9.2-8.5-4.8-17.1-9.7-33.9-18.9l-3-1.6-7.5 7.5c-22.5 22.3-53.1 29.1-84.9 18.8-7.2-2.3-21.6-11.4-28.2-17.9-10.5-10.2-16.7-20.2-21.6-34.9-2.7-7.9-2.9-9.6-2.9-23.5 0-12.8.4-16.1 2.3-22.2 9.4-29.9 33-51.7 62.1-57.3 5.6-1.1 12.7-2 15.9-2 8.2 0 22.7 2.7 30.2 5.7 9 3.6 21.7 12.2 28.5 19.4l5.8 6.1 5.1-2.8c6.3-3.3 21-11.5 29.6-16.4 3.6-2.1 11-6.2 16.5-9.3 5.5-3 19.5-10.8 31-17.2 11.6-6.5 25.3-14.2 30.5-17.1 5.8-3.2 9.4-5.8 9.1-6.6-.2-.7-1.1-3.8-1.9-6.8-1.1-3.8-1.6-9.6-1.6-19 0-12.6.2-14.1 3.3-23 4.9-14.4 10.2-23.1 20.6-33.5 10.4-10.4 19.7-16.2 33.2-20.6 8-2.6 10.1-2.8 23.2-2.9 9.9 0 16.2.5 20.5 1.6z"/><path d="M394.8 111.6c-24.4 5.9-42.7 28.7-42.8 53.5 0 6.5 3.4 19 7.1 25.9 8.9 16.8 28.1 28 47.9 28 25.2-.1 47.8-18.4 52.9-42.8 5.1-24.5-6.8-49.1-28.9-59.9-12.6-6.2-24-7.7-36.2-4.7zM393.1 401.6c-14 3.8-27.5 14.2-34 26.4-3.7 6.9-7.1 19.4-7.1 25.9.1 32.6 30.3 59 62.2 54.3 26.6-3.9 46.8-26.9 46.8-53.4 0-25.3-16.5-46.8-41-53.3-6.9-1.9-19.9-1.8-26.9.1z"/></svg>