<svg version="1" xmlns="http://www.w3.org/2000/svg" width="832" height="832" viewBox="0 0 624.000000 624.000000"><path d="M382.7 86.9c-13.5 4.4-22.8 10.2-33.2 20.6-10.4 10.4-15.7 19.1-20.6 33.5-3.1 8.9-3.3 10.4-3.3 23 0 9.4.5 15.2 1.6 19 .8 3 1.7 6.1 1.9 6.8.3.8-3.3 3.4-9.1 6.6-5.2 2.9-18.9 10.6-30.5 17.1-11.5 6.4-25.5 14.2-31 17.2-5.5 3.1-12.9 7.2-16.5 9.3-8.6 4.9-23.3 13.1-29.6 16.4l-5.1 2.8-5.8-6.1c-6.8-7.2-19.5-15.8-28.5-19.4-7.5-3-22-5.7-30.2-5.7-3.2 0-10.3.9-15.9 2-29.1 5.6-52.7 27.4-62.1 57.3-1.9 6.1-2.3 9.4-2.3 22.2 0 13.9.2 15.6 2.9 23.5 6.8 20.2 16.9 33.3 34.8 45.1 11.3 7.4 21.6 10.7 38.3 12.4 7.2.8 23.9-1.6 32.2-4.5 9.5-3.3 21.2-10.9 29.4-19l7.5-7.5 3 1.6c16.8 9.2 25.4 14.1 33.9 18.9 5.5 3.2 12.9 7.3 16.5 9.2 3.6 2 11.9 6.6 18.5 10.3 12.4 7.1 19.6 11.1 37.5 20.9 5.8 3.2 11 6.2 11.6 6.7.8.7.6 2.8-.8 7.7-2.7 8.9-2.9 27.7-.4 37.7 2.3 9.8 10.4 25.8 16.9 33.5 10.5 12.6 22.8 20.8 38.5 26 8.6 2.8 10.5 3 23.4 3 16.4 0 22.2-1.2 35.3-7.4 11.6-5.5 22.2-14 29.6-23.9 7.1-9.4 9.7-14.3 13.5-25.7 2.7-8 2.9-9.5 2.8-24 0-14.2-.3-16.2-2.8-23.5-10.4-30.4-34.4-51.2-65.1-56.6-8.4-1.4-24.9-.7-32.9 1.5-14.3 4-28.9 12.8-39 23.6-4.8 5.1-5 5.2-7.5 3.7-1.4-.8-6.6-3.7-11.6-6.4-4.9-2.8-20.5-11.4-34.5-19.3-25.6-14.4-37.1-20.8-51-28.5-19.2-10.5-22.9-13-22.4-14.5 5.2-14.1 5.1-35.6-.2-49.3-.5-1.3 7.5-6.4 22.1-14.2 2.2-1.2 9.9-5.5 17-9.5 7.2-4 16.8-9.4 21.5-12 4.7-2.6 13.9-7.8 20.5-11.5s16.7-9.4 22.5-12.5c5.8-3.2 12.4-6.9 14.7-8.1l4.1-2.4 2.3 2.9c5.9 7.5 16.5 15.5 27.2 20.6 12.9 6.2 19.1 7.5 35.2 7.5 13.1-.1 14.6-.3 23.5-3.4 27.2-9.3 45.4-28.2 54.2-56.2 3.3-10.5 3.3-32 .1-42.4-7.6-23.9-22.9-42.2-43.8-52.1-13.2-6.2-18.8-7.4-35.6-7.4-13.1.1-15.2.3-23.2 2.9zm33.9 24.2c3.2.5 9.7 2.9 14.4 5.2 33.1 16.2 40.4 60.7 14.1 86.7-10.6 10.5-23.6 16-38.1 16-19.8 0-39-11.2-47.9-28-3.7-6.9-7.1-19.4-7.1-25.9.1-33.6 31.6-59.9 64.6-54zm3.4 290.4c19.8 5.3 35.9 21.9 39.9 41.3 6.4 31-14.5 60.9-45.7 65.4-31.9 4.7-62.1-21.7-62.2-54.3 0-6.5 3.4-19 7.1-25.9 6.5-12.2 20-22.6 34-26.4 7-1.9 20-2 26.9-.1z"/></svg>